<svg width="140" height="49" viewBox="0 0 140 49" fill="none" xmlns="http://www.w3.org/2000/svg">
<path d="M130.748 3.72202H9.00001C6.23858 3.72202 4.00001 5.9606 4.00001 8.72202L4 20.1802C4 22.9416 6.23858 25.1802 9 25.1802H18.9443C21.7058 25.1802 23.9443 27.4188 23.9443 30.1802V40.3248C23.9443 43.0862 26.1829 45.3248 28.9443 45.3248H100.782C103.543 45.3248 105.782 43.0862 105.782 40.3248V30.1802C105.782 27.4188 108.02 25.1802 110.782 25.1802H130.748C133.51 25.1802 135.748 22.9416 135.748 20.1802V8.72202C135.748 5.96059 133.51 3.72202 130.748 3.72202Z" stroke="white" stroke-width="7" stroke-linejoin="round"/>
</svg>
